<svg width="16" height="16" viewBox="0 0 16 16" fill="none" xmlns="http://www.w3.org/2000/svg">
  <path d="M13.2649 10.265C13.1946 10.3352 13.0993 10.3747 12.9999 10.3747C12.9005 10.3747 12.8052 10.3352 12.7349 10.265L7.99992 5.53062L3.26492 10.265C3.19384 10.3312 3.09981 10.3673 3.00266 10.3656C2.90551 10.3639 2.81282 10.3245 2.74411 10.2558C2.67541 10.1871 2.63605 10.0944 2.63434 9.99726C2.63262 9.90011 2.66868 9.80609 2.73492 9.735L7.73492 4.735C7.80524 4.66477 7.90055 4.62533 7.99992 4.62533C8.0993 4.62533 8.19461 4.66477 8.26492 4.735L13.2649 9.735C13.3351 9.80531 13.3746 9.90062 13.3746 10C13.3746 10.0994 13.3351 10.1947 13.2649 10.265Z" fill="#1B2438" />
</svg>